<svg width="89" height="64" viewBox="0 0 89 64" fill="none" xmlns="http://www.w3.org/2000/svg">
<path d="M3.34033 51.2261H5.46436C6.31885 51.2261 6.97559 51.3286 7.43457 51.5337C7.89355 51.7339 8.25488 52.0439 8.51855 52.4639C8.78711 52.8838 8.92139 53.3501 8.92139 53.8628C8.92139 54.3413 8.8042 54.7783 8.56982 55.1738C8.33545 55.5645 7.99121 55.8818 7.53711 56.126C8.09863 56.3164 8.53076 56.541 8.8335 56.7998C9.13623 57.0537 9.37061 57.3638 9.53662 57.73C9.70752 58.0913 9.79297 58.4844 9.79297 58.9092C9.79297 59.7734 9.47559 60.5059 8.84082 61.1064C8.21094 61.7021 7.36377 62 6.29932 62H3.34033V51.2261ZM4.39502 52.2808V55.7305H5.01025C5.75732 55.7305 6.30664 55.6621 6.6582 55.5254C7.00977 55.3838 7.28809 55.1641 7.49316 54.8662C7.69824 54.5635 7.80078 54.229 7.80078 53.8628C7.80078 53.3696 7.62744 52.9839 7.28076 52.7056C6.93896 52.4224 6.39209 52.2808 5.64014 52.2808H4.39502ZM4.39502 56.8145V60.9453H5.72803C6.51416 60.9453 7.09033 60.8696 7.45654 60.7183C7.82275 60.562 8.11572 60.3203 8.33545 59.9932C8.56006 59.666 8.67236 59.312 8.67236 58.9312C8.67236 58.4526 8.51611 58.0352 8.20361 57.6787C7.89111 57.3223 7.46143 57.0781 6.91455 56.9463C6.54834 56.8584 5.91113 56.8145 5.00293 56.8145H4.39502ZM22.8898 59.356L23.7541 59.8101C23.4709 60.3667 23.1438 60.8159 22.7727 61.1577C22.4016 61.4995 21.9841 61.7607 21.5202 61.9414C21.0563 62.1172 20.5314 62.2051 19.9455 62.2051C18.6467 62.2051 17.6311 61.7803 16.8986 60.9307C16.1662 60.0762 15.8 59.1118 15.8 58.0376C15.8 57.0269 16.1101 56.126 16.7302 55.335C17.5163 54.3291 18.5686 53.8262 19.8869 53.8262C21.2443 53.8262 22.3283 54.3413 23.1389 55.3716C23.715 56.0991 24.008 57.0073 24.0178 58.0962H16.8547C16.8742 59.0239 17.1696 59.7856 17.7409 60.3813C18.3122 60.9722 19.0178 61.2676 19.8576 61.2676C20.2629 61.2676 20.656 61.1968 21.0368 61.0552C21.4226 60.9136 21.7497 60.7256 22.0183 60.4912C22.2868 60.2568 22.5773 59.8784 22.8898 59.356ZM22.8898 57.21C22.7531 56.6631 22.5529 56.2261 22.2893 55.8989C22.0305 55.5718 21.6862 55.3081 21.2565 55.1079C20.8269 54.9077 20.3752 54.8076 19.9016 54.8076C19.1203 54.8076 18.4489 55.0591 17.8874 55.562C17.4772 55.9282 17.1672 56.4775 16.9572 57.21H22.8898ZM34.3681 54.9028L33.7089 55.584C33.162 55.0518 32.6273 54.7856 32.1049 54.7856C31.7729 54.7856 31.4872 54.8955 31.2479 55.1152C31.0136 55.335 30.8964 55.5913 30.8964 55.8843C30.8964 56.1431 30.994 56.3896 31.1894 56.624C31.3847 56.8633 31.7948 57.144 32.4198 57.4663C33.1815 57.8618 33.6991 58.2427 33.9726 58.6089C34.2411 58.98 34.3754 59.3975 34.3754 59.8613C34.3754 60.5156 34.1459 61.0698 33.6869 61.5239C33.2279 61.978 32.6542 62.2051 31.9657 62.2051C31.5067 62.2051 31.0673 62.105 30.6474 61.9048C30.2323 61.7046 29.8881 61.4287 29.6146 61.0771L30.2592 60.3447C30.7816 60.9355 31.3358 61.231 31.9218 61.231C32.3319 61.231 32.6811 61.0991 32.9691 60.8354C33.2572 60.5718 33.4013 60.2617 33.4013 59.9053C33.4013 59.6123 33.3061 59.3511 33.1156 59.1216C32.9252 58.897 32.4955 58.6138 31.8266 58.272C31.1088 57.9009 30.6205 57.5347 30.3617 57.1733C30.1029 56.812 29.9735 56.3994 29.9735 55.9355C29.9735 55.3301 30.1786 54.8271 30.5888 54.4268C31.0038 54.0264 31.5263 53.8262 32.1562 53.8262C32.8886 53.8262 33.6259 54.1851 34.3681 54.9028ZM41.5104 51.0723H42.5431V54.0312H44.169V54.9102H42.5431V62H41.5104V54.9102H40.1114V54.0312H41.5104V51.0723ZM49.971 50.9551H50.9964V62H49.971V50.9551ZM57.9116 50.75C58.146 50.75 58.3462 50.833 58.5122 50.999C58.6782 51.165 58.7612 51.3652 58.7612 51.5996C58.7612 51.8291 58.6782 52.0269 58.5122 52.1929C58.3462 52.3589 58.146 52.4419 57.9116 52.4419C57.6821 52.4419 57.4844 52.3589 57.3184 52.1929C57.1523 52.0269 57.0693 51.8291 57.0693 51.5996C57.0693 51.3652 57.1523 51.165 57.3184 50.999C57.4844 50.833 57.6821 50.75 57.9116 50.75ZM57.3989 54.0312H58.4316V62H57.3989V54.0312ZM64.9807 54.0312H66.0061V55.4595C66.4162 54.9126 66.8703 54.5049 67.3684 54.2363C67.8664 53.9629 68.4084 53.8262 68.9943 53.8262C69.59 53.8262 70.1174 53.9775 70.5764 54.2803C71.0402 54.583 71.382 54.9907 71.6018 55.5034C71.8215 56.0161 71.9314 56.8145 71.9314 57.8984V62H70.9133V58.1987C70.9133 57.2808 70.8742 56.668 70.7961 56.3604C70.674 55.833 70.4445 55.4375 70.1076 55.1738C69.7707 54.9053 69.3313 54.771 68.7893 54.771C68.1691 54.771 67.6125 54.9761 67.1193 55.3862C66.6311 55.7964 66.3088 56.3042 66.1525 56.9097C66.0549 57.3052 66.0061 58.0278 66.0061 59.0776V62H64.9807V54.0312ZM78.5536 50.9551H79.5863V57.2393L83.2704 54.0312H84.7792L80.4066 57.8325L85.0355 62H83.5854L79.5863 58.4185V62H78.5536V50.9551Z" fill="white"/>
<path d="M61.2294 0C66.7997 0 69.973 0.232867 70.8211 0.372511C73.0705 0.742757 75.6471 1.66517 78.4706 3.32882C80.0406 4.25387 81.6677 5.75109 83.4031 7.72196C86.5126 11.5765 88.0615 15.9508 88.0615 20.8538C88.0615 23.7279 87.5029 26.4347 86.3945 28.9838C84.2175 33.9468 80.5751 37.4323 75.6166 39.7326C73.2569 40.8267 69.7417 41.6605 64.9364 41.6605H47.3227L46.4011 41.6612V33.3248H65.8192C67.8889 33.3248 69.502 33.3026 70.6248 32.9266C73.6302 31.9208 75.8324 30.3961 77.2349 28.3863C78.9314 25.8361 79.7844 23.3553 79.7844 20.9421C79.7844 18.5104 79.0492 16.1176 77.5776 13.7538C76.656 12.4008 75.5754 11.4471 74.5281 10.6549C72.4334 9.07009 69.5945 8.33564 65.8192 8.33564H46.4011V0H61.2294V0Z" fill="white"/>
<path d="M0 16.7505H6.78634C7.66912 13.4357 9.19955 10.3858 11.3867 7.58081C13.4361 5.30536 15.1325 3.82437 16.4954 3.12803C17.9862 2.19695 19.634 1.45117 21.4384 0.921653C23.3508 0.303444 25.9599 0 29.2551 0H41.3763V8.33564H28.8822C25.2443 8.33564 22.439 9.04179 20.4575 10.4548C19.8303 10.7488 18.8203 11.6607 17.4469 13.2202C15.6232 15.5345 14.711 18.0745 14.711 20.8304C14.711 23.5859 15.6232 26.126 17.4469 28.4403C18.8203 30.0002 19.8303 30.912 20.4575 31.2064C22.439 32.6187 25.2443 33.3248 28.8822 33.3248H41.3763V41.6605H29.2551C25.9599 41.6605 23.3508 41.357 21.4384 40.7392C19.634 40.2289 17.9862 39.4839 16.4954 38.5324C15.1325 37.8361 13.4361 36.3649 11.3867 34.1095C9.19955 31.2849 7.66912 28.2252 6.78634 24.9099H0V16.7505H0Z" fill="white"/>
</svg>
